<svg width="47" height="45" viewBox="0 0 47 45" fill="none" xmlns="http://www.w3.org/2000/svg">
<path d="M43.6946 39.8144C43.6003 39.3474 43.3448 38.9283 42.9728 38.6307C42.6008 38.3331 42.1359 38.1758 41.6596 38.1864H10.5066L10.0066 33.8774L40.9896 33.3904C41.4564 33.383 41.906 33.2124 42.2603 32.9083C42.6147 32.6042 42.8514 32.1857 42.9296 31.7254L46.0546 13.3184C46.1036 13.0292 46.0884 12.7328 46.0101 12.4501C45.9318 12.1675 45.7922 11.9055 45.6014 11.6828C45.4105 11.4601 45.1731 11.2821 44.9057 11.1614C44.6384 11.0407 44.3478 10.9803 44.0546 10.9844L7.41558 11.5594L7.38458 11.4184C7.29358 11.1334 5.16158 4.45938 3.79358 1.26938C3.614 0.823315 3.28161 0.455661 2.85585 0.232155C2.43009 0.00864948 1.93872 -0.0561351 1.46958 0.0493845C1.19557 0.119735 0.940083 0.248685 0.720739 0.42734C0.501395 0.605995 0.323414 0.830102 0.199072 1.08421C0.0747294 1.33831 0.00698542 1.61636 0.000512191 1.89918C-0.00596104 2.182 0.0489905 2.46286 0.161577 2.72238C1.33058 5.42238 3.24358 11.3224 3.59858 12.4224L6.81858 40.3694C6.87417 40.8454 7.10249 41.2845 7.46025 41.6033C7.81801 41.9222 8.28034 42.0987 8.75958 42.0994C8.78758 42.0994 8.81658 42.0994 8.84458 42.0944C8.87258 42.0894 8.87658 42.0994 8.89358 42.0994H41.7646C42.0493 42.0993 42.3307 42.0371 42.5889 41.9172C42.8472 41.7972 43.0762 41.6224 43.2599 41.4048C43.4436 41.1873 43.5777 40.9323 43.6528 40.6576C43.7279 40.3829 43.7421 40.0951 43.6946 39.8144Z" fill="#FF6600"/>
<path d="M5.52002 42.3192C5.51982 42.792 5.65985 43.2542 5.92239 43.6474C6.18493 44.0406 6.55819 44.347 6.99494 44.5281C7.4317 44.7091 7.91233 44.7565 8.37604 44.6643C8.83975 44.5721 9.2657 44.3445 9.6 44.0102C9.93431 43.6759 10.162 43.2499 10.2541 42.7862C10.3463 42.3225 10.2989 41.8419 10.1179 41.4051C9.93688 40.9683 9.6304 40.5951 9.23721 40.3325C8.84402 40.07 8.3818 39.93 7.90902 39.9302C7.2755 39.9304 6.668 40.1822 6.22003 40.6302C5.77207 41.0782 5.52028 41.6857 5.52002 42.3192Z" fill="#FF6600"/>
<path d="M37.62 42.3192C37.6401 42.7666 37.7913 43.1983 38.0547 43.5605C38.3181 43.9228 38.6821 44.1997 39.1016 44.3568C39.521 44.514 39.9773 44.5445 40.4139 44.4445C40.8505 44.3445 41.2481 44.1185 41.5574 43.7945C41.8666 43.4704 42.0738 43.0627 42.1533 42.6219C42.2328 42.1811 42.1811 41.7267 42.0045 41.3151C41.828 40.9034 41.5344 40.5528 41.1603 40.3065C40.7861 40.0603 40.3479 39.9295 39.9 39.9302C39.2811 39.9454 38.6935 40.2054 38.266 40.6533C37.8386 41.1011 37.6063 41.7002 37.62 42.3192Z" fill="#FF6600"/>
</svg>
